<?xml version="1.0" standalone="no"?>
<!DOCTYPE svg PUBLIC "-//W3C//DTD SVG 20010904//EN"
 "http://www.w3.org/TR/2001/REC-SVG-20010904/DTD/svg10.dtd">
<svg version="1.0" xmlns="http://www.w3.org/2000/svg"
 width="742.000000pt" height="188.000000pt" viewBox="0 0 742.000000 188.000000"
 preserveAspectRatio="xMidYMid meet">

<g transform="translate(0.000000,188.000000) scale(0.100000,-0.100000)"
fill="#000000" stroke="none">
<path d="M5086 1745 c-3 -9 -6 -77 -6 -151 0 -82 -4 -134 -10 -135 -5 -1 -14
-3 -20 -4 -5 -1 -35 -3 -65 -4 l-55 -1 0 -55 0 -55 75 0 75 0 0 -317 c0 -332
7 -414 42 -495 43 -100 164 -174 270 -166 l43 3 3 58 3 57 -43 0 c-65 0 -128
36 -158 90 l-25 45 -3 363 -3 362 100 0 c86 0 100 2 105 18 6 21 2 79 -7 88
-3 4 -48 6 -99 6 l-93 0 -5 151 -5 152 -56 3 c-45 2 -58 0 -63 -13z"/>
<path d="M558 1532 c-28 -12 -125 -139 -172 -225 -24 -45 -56 -119 -70 -163
-54 -176 -58 -337 -11 -534 18 -76 88 -219 144 -295 90 -123 136 -156 169
-123 16 16 15 75 0 85 -20 13 -108 120 -108 131 0 6 -6 17 -13 24 -19 19 -67
117 -67 137 0 9 -4 21 -9 26 -17 18 -43 179 -43 265 1 216 79 414 229 580 48
53 14 117 -49 92z"/>
<path d="M1800 1519 c-16 -28 -7 -58 29 -96 16 -17 39 -47 52 -65 13 -18 29
-39 36 -46 7 -7 13 -18 13 -24 0 -5 9 -23 21 -39 11 -16 18 -29 15 -29 -3 0 3
-17 14 -39 12 -21 23 -47 25 -57 31 -120 37 -163 37 -259 1 -215 -58 -379
-199 -551 -57 -69 -64 -91 -33 -119 29 -27 61 -12 111 51 24 30 52 65 61 76
34 40 108 196 134 284 24 80 27 105 28 249 0 138 -3 171 -23 238 -25 88 -77
218 -90 227 -4 3 -16 21 -26 40 -22 42 -78 115 -118 153 -36 32 -72 35 -87 6z"/>
<path d="M2707 1470 c-98 -17 -192 -98 -223 -193 -21 -64 -15 -166 14 -223 30
-58 97 -114 193 -160 271 -128 299 -151 307 -248 3 -43 0 -62 -18 -94 -54 -95
-206 -120 -310 -49 -44 29 -70 74 -84 145 l-11 57 -55 0 -55 0 -3 -33 c-2 -19
6 -64 17 -102 49 -161 219 -257 393 -221 83 17 125 40 177 96 58 63 75 105 74
190 0 146 -62 223 -251 312 -183 85 -185 86 -224 122 -145 129 8 334 206 277
67 -20 107 -66 126 -149 7 -28 17 -55 22 -58 9 -6 100 0 107 7 9 8 -17 131
-35 170 -28 59 -93 119 -150 137 -63 21 -156 28 -217 17z"/>
<path d="M4403 1469 c-96 -18 -165 -70 -214 -161 l-34 -63 0 -440 0 -440 55 0
55 0 5 425 c5 410 6 426 26 465 28 51 53 73 101 91 112 40 233 -17 263 -124 6
-23 10 -193 10 -439 0 -373 1 -403 18 -411 14 -8 70 -9 105 -3 5 0 7 191 5
424 -3 410 -4 424 -26 478 -42 105 -124 176 -230 198 -60 12 -79 12 -139 0z"/>
<path d="M5835 1470 c-99 -18 -170 -72 -214 -163 -37 -74 -51 -155 -30 -168
16 -10 70 -12 93 -3 8 3 19 22 22 42 16 85 51 132 118 163 50 23 77 23 142 4
98 -29 134 -95 134 -245 l0 -100 -108 0 c-183 0 -266 -24 -341 -99 -63 -63
-86 -122 -86 -221 1 -72 5 -95 29 -148 46 -100 127 -160 244 -182 117 -21 230
16 306 101 77 86 81 108 81 459 0 347 -4 372 -77 454 -81 92 -189 129 -313
106z m265 -722 c0 -108 -4 -141 -19 -174 -46 -100 -180 -139 -291 -84 -67 34
-100 95 -100 185 0 67 17 110 58 149 42 40 107 55 240 55 l112 1 0 -132z"/>
<path d="M6683 1470 c-98 -20 -177 -81 -220 -168 l-28 -57 -3 -313 c-3 -357 1
-386 68 -470 28 -36 58 -60 107 -84 59 -29 77 -33 148 -33 71 0 88 4 147 33
103 50 176 161 181 273 l2 54 -55 0 c-60 0 -57 4 -80 -93 -12 -48 -58 -105
-104 -129 -48 -25 -142 -23 -192 6 -49 28 -91 89 -99 145 -4 22 -5 163 -3 311
3 267 3 271 28 315 57 102 210 130 300 53 34 -28 70 -91 70 -122 0 -44 10 -51
71 -51 56 0 59 1 59 24 0 74 -62 198 -123 246 -67 53 -186 78 -274 60z"/>
<path d="M3502 1456 c-83 -27 -133 -73 -183 -166 -24 -45 -24 -47 -24 -375 l0
-330 33 -67 c38 -78 83 -119 162 -149 70 -27 176 -29 247 -5 111 37 204 165
207 283 l1 58 -54 0 -53 0 -17 -65 c-9 -36 -26 -79 -39 -97 -47 -66 -170 -95
-254 -59 -47 20 -93 77 -107 132 -6 23 -11 79 -11 123 l0 81 128 0 c180 0 260
26 337 107 57 61 70 99 70 213 0 90 -4 112 -24 152 -31 63 -86 119 -147 148
-61 30 -204 38 -272 16z m204 -117 c66 -20 124 -114 124 -201 0 -46 -22 -103
-53 -136 -45 -48 -74 -56 -224 -60 l-143 -4 0 114 c0 145 16 203 69 251 25 22
54 38 78 42 21 4 45 8 53 9 17 4 52 -2 96 -15z"/>
<path d="M730 1259 c-60 -72 -91 -130 -119 -224 -31 -106 -33 -190 -7 -329 7
-40 68 -176 78 -176 4 0 8 -7 8 -15 0 -8 5 -15 10 -15 6 0 10 -6 10 -13 0 -21
67 -79 94 -82 30 -4 57 26 51 56 -2 11 -21 40 -43 67 -49 58 -75 105 -92 164
-1 4 -8 28 -16 54 -9 29 -12 78 -10 137 5 122 35 206 105 294 54 69 64 89 52
112 -11 19 -32 31 -56 31 -8 0 -37 -27 -65 -61z"/>
<path d="M1581 1306 c-22 -26 -15 -51 26 -106 38 -52 109 -172 104 -178 -1 -1
3 -19 9 -40 5 -20 10 -75 10 -122 0 -131 -42 -244 -127 -344 -36 -43 -42 -76
-17 -101 23 -23 52 -11 102 43 50 54 102 151 128 238 29 94 24 257 -10 357
-58 172 -180 308 -225 253z"/>
<path d="M1114 1160 c-83 -26 -181 -125 -204 -208 -29 -106 1 -231 74 -306 72
-74 115 -91 226 -91 87 0 100 3 149 30 61 34 121 103 146 169 25 65 18 185
-15 249 -28 56 -80 106 -142 138 -48 25 -180 36 -234 19z"/>
</g>
</svg>
